PathFileType	4	(X/Y/Z)	C:/Users/opensim2020/Desktop/walking_exp_matlab/subject03_walking06_straight_04.trc	
DataRate	CameraRate	NumFrames	NumMarkers	Units	OrigDataRate	OrigDataStartFrame	OrigNumFrames	
100.00	100.00	7	44	mm	100.00	2729	278	
Frame#	Time	LFHD			RFHD			LBHD			RBHD			C7			T10			CLAV			STRN			RBAK			LSHO			LUPA			LELB			LFRM			LWRA			LWRB			LFIN			RSHO			RUPA			RELB			RFRM			RWRA			RWRB			RFIN			LASI			RASI			LPSI			RPSI			LTHI			LKNE			LTIB			LANK			LHEE			LTOE			RTHI			RKNE			RTIB			RANK			RHEE			RTOE			*39			*40			*41			*42			*43			
		X1	Y1	Z1	X2	Y2	Z2	X3	Y3	Z3	X4	Y4	Z4	X5	Y5	Z5	X6	Y6	Z6	X7	Y7	Z7	X8	Y8	Z8	X9	Y9	Z9	X10	Y10	Z10	X11	Y11	Z11	X12	Y12	Z12	X13	Y13	Z13	X14	Y14	Z14	X15	Y15	Z15	X16	Y16	Z16	X17	Y17	Z17	X18	Y18	Z18	X19	Y19	Z19	X20	Y20	Z20	X21	Y21	Z21	X22	Y22	Z22	X23	Y23	Z23	X24	Y24	Z24	X25	Y25	Z25	X26	Y26	Z26	X27	Y27	Z27	X28	Y28	Z28	X29	Y29	Z29	X30	Y30	Z30	X31	Y31	Z31	X32	Y32	Z32	X33	Y33	Z33	X34	Y34	Z34	X35	Y35	Z35	X36	Y36	Z36	X37	Y37	Z37	X38	Y38	Z38	X39	Y39	Z39	X40	Y40	Z40	X41	Y41	Z41	X42	Y42	Z42	X43	Y43	Z43	X44	Y44	Z44	

1	0.000	-872.04492	1312.50085	1599.70740	-1003.44946	1330.27405	1610.58789	-862.73053	1440.16040	1552.44275	-992.77136	1452.40588	1562.83667	-921.56433	1475.79236	1400.51563	-927.45917	1521.69116	1089.94910	-938.26642	1356.50623	1320.38953	-937.65637	1318.90649	1153.57141	-1009.79285	1545.69238	1228.42773	-778.95135	1381.52112	1359.10437	-704.06799	1352.02051	1169.39819	-696.90363	1310.71790	1054.35864	-722.39935	1230.50208	958.47833	-777.81042	1162.67358	874.36902	-724.42596	1173.67932	859.94458	-750.54663	1114.63782	806.90210	-1091.37781	1422.39307	1346.12500	-1163.25525	1464.50659	1127.68713	-1180.37329	1470.98486	1015.37488	-1187.79333	1480.30310	878.57227	-1160.00586	1462.75793	777.53802	-1198.42480	1502.03284	780.59589	-1189.69177	1495.74023	704.68396	-826.72479	1354.55359	920.78577	-1063.90698	1367.20776	926.58496	-870.05914	1518.57568	944.56268	-1018.21619	1526.38831	949.58862	-797.73584	1444.03918	624.02545	-838.30255	1479.86694	449.94144	-834.46625	1575.51929	275.43100	-878.14697	1646.87830	75.46002	-910.12897	1696.68298	47.53365	-918.02234	1503.98499	27.74133	-1125.47583	1371.07532	632.94781	-1098.29724	1289.95032	469.94513	-1113.51111	1269.17383	287.51639	-1086.58496	1204.84216	75.68311	-1029.82886	1230.74341	35.48784	-1081.82874	1055.95813	67.24010	-909.03339	1402.75635	1660.83301												 
2	0.010	-874.28168	1302.81360	1598.99756	-1005.77722	1320.29443	1609.76184	-865.20892	1430.44604	1551.72852	-995.31128	1442.44836	1562.10730	-923.86139	1466.02368	1399.80859	-929.51721	1512.08496	1089.31177	-940.33594	1346.67639	1319.67432	-939.38019	1309.15662	1152.78406	-1011.89063	1535.89929	1227.69873	-781.06281	1371.96411	1358.54053	-705.93835	1343.10657	1168.86841	-698.68494	1301.75000	1053.79395	-724.10144	1221.24194	958.13922	-779.46912	1152.97412	874.56323	-726.22333	1164.04309	859.86432	-752.03540	1104.44531	807.77246	-1093.56238	1412.54248	1345.21997	-1165.25281	1455.04382	1126.77917	-1182.14478	1461.71484	1014.46625	-1189.24927	1471.06018	877.64618	-1161.28735	1453.46912	776.74200	-1199.64465	1492.74622	779.61517	-1190.91113	1486.27734	703.78693	-828.34778	1345.49976	920.00885	-1065.46252	1357.25500	925.90186	-872.46747	1509.35181	944.03931	-1020.57544	1516.54187	949.14624	-798.59540	1436.63501	623.65710	-838.43250	1473.52551	449.57144	-834.22833	1571.79065	276.23456	-877.35181	1645.96362	77.13197	-909.30341	1696.08594	49.86117	-917.84589	1503.81165	27.58006	-1125.95239	1361.63000	632.11090	-1098.43884	1281.38672	468.77902	-1113.00525	1260.47473	286.27728	-1085.57983	1195.00989	74.71179	-1028.78809	1220.71704	34.50203	-1080.36450	1045.98865	67.09158	-911.51398	1392.94629	1660.16089												 
3	0.020	-876.56262	1292.98450	1598.36523	-1008.11542	1310.23975	1609.02527	-867.63483	1420.64429	1551.07935	-997.76910	1432.34351	1561.41553	-926.22864	1456.19910	1399.17493	-931.59491	1502.33350	1088.72424	-942.50635	1336.73315	1319.05908	-941.23523	1299.26367	1152.17151	-1014.00214	1525.96497	1226.98657	-783.23230	1362.37292	1358.04382	-708.03192	1334.15125	1168.40649	-700.68842	1292.92847	1053.28137	-725.86639	1212.26624	957.70471	-781.06116	1143.75244	874.41925	-727.89819	1154.97510	859.50378	-753.34668	1094.82056	808.21985	-1095.76160	1402.60034	1344.43115	-1167.22913	1445.38965	1126.02319	-1183.93835	1452.16516	1013.69495	-1190.77039	1461.40723	876.83582	-1162.60559	1443.68018	776.06409	-1200.95251	1483.02856	778.80182	-1192.12451	1476.25537	702.99719	-829.97009	1336.42004	919.34485	-1067.09094	1347.14417	925.39307	-874.85834	1499.93860	943.58270	-1022.99915	1506.55884	948.88086	-799.45868	1429.18225	623.41235	-838.63086	1466.96692	449.17548	-833.95490	1567.89197	277.23056	-876.63910	1644.67004	78.56391	-908.34924	1695.40845	52.43066	-917.67761	1503.62842	27.43080	-1126.43347	1351.60400	631.47644	-1098.37573	1272.26941	467.69788	-1112.55286	1252.19421	284.95923	-1084.15027	1187.54016	73.46326	-1027.39392	1213.55603	33.22461	-1078.30347	1038.48889	65.48234	-914.06036	1383.04089	1659.66809												 
4	0.030	-878.84235	1283.16382	1597.85742	-1010.44043	1300.12830	1608.41821	-870.17224	1410.92957	1550.82922	-1000.53534	1422.55737	1560.97888	-928.62024	1446.29150	1398.60742	-933.75214	1492.42566	1088.19153	-944.61603	1326.67053	1318.52319	-943.00690	1289.21643	1151.70142	-1016.12811	1515.86877	1226.31030	-785.37933	1352.69946	1357.73108	-710.21692	1324.91699	1167.96484	-702.80530	1284.03503	1052.80859	-727.56818	1203.51770	957.22827	-782.60504	1134.90320	873.98907	-729.46796	1146.40710	858.93341	-754.59515	1085.73853	808.20685	-1098.00244	1392.59680	1343.80701	-1169.28857	1435.56262	1125.41931	-1185.76294	1442.29810	1013.01660	-1192.32910	1451.38196	876.16064	-1163.95972	1433.57361	775.50275	-1202.30029	1472.82397	778.06348	-1193.40295	1465.86267	702.36224	-831.58350	1327.19592	918.52869	-1068.74243	1336.88257	924.97290	-877.32977	1490.46350	943.26202	-1025.40564	1496.35901	948.73730	-800.34491	1421.58252	623.24646	-838.72070	1460.23071	448.99609	-833.67682	1563.75439	278.30862	-875.77936	1643.56934	80.75295	-907.41467	1694.63342	55.32246	-917.52057	1503.42188	27.27126	-1127.00952	1341.17615	631.03888	-1098.73035	1262.63538	467.05508	-1111.97791	1244.21521	283.58072	-1082.38562	1181.99878	71.49278	-1025.75244	1208.80066	31.80348	-1075.82117	1033.28333	62.19812	-916.70050	1373.01611	1659.29138												 
5	0.040	-881.13513	1273.24927	1597.47412	-1012.75476	1289.93481	1607.87927	-872.67438	1401.13123	1550.62354	-1003.01459	1412.34485	1560.57446	-930.98242	1436.28430	1398.11011	-935.96979	1482.36267	1087.72656	-946.85663	1316.52795	1318.17078	-944.87982	1279.01514	1151.32068	-1018.25055	1505.60266	1225.64636	-787.58215	1342.97864	1357.48938	-712.41522	1315.96155	1167.69507	-705.02484	1275.36572	1052.35889	-729.38635	1195.09814	956.45215	-784.08350	1126.31030	873.23853	-731.07220	1138.14856	858.07336	-755.65326	1077.31262	807.65851	-1100.26489	1382.45020	1343.30151	-1171.34863	1425.55530	1124.90198	-1187.69495	1432.21082	1012.48364	-1193.91333	1440.98669	875.54956	-1165.34448	1422.98767	775.01489	-1203.70056	1462.19470	777.40216	-1194.70203	1454.98169	701.76422	-833.42950	1317.74475	918.02209	-1070.51514	1326.33826	924.52881	-879.76715	1480.78223	942.97156	-1027.79749	1485.99109	948.67706	-801.18909	1413.89417	623.16473	-838.63202	1453.22241	448.93555	-833.53589	1559.35986	279.45532	-875.04828	1642.25488	83.00315	-906.61682	1693.73596	58.51768	-917.32666	1503.22119	27.09277	-1127.51636	1330.39014	630.64716	-1098.85376	1252.80579	466.37247	-1111.36047	1236.65381	282.06949	-1080.56543	1178.32251	69.32889	-1024.29187	1206.53589	30.48296	-1072.83569	1030.03125	57.33290	-919.03821	1362.93567	1658.87878												 
6	0.050	-883.43225	1263.22461	1597.20740	-1015.09814	1279.73792	1607.47034	-875.15405	1391.10229	1550.35840	-1005.27448	1401.97400	1560.20215	-933.44519	1426.25549	1397.73035	-938.28418	1472.11340	1087.34802	-949.00330	1306.23682	1317.90637	-946.77106	1268.65710	1151.06763	-1020.47168	1495.20862	1225.05554	-789.84534	1333.14417	1357.37402	-714.68573	1306.83167	1167.44556	-707.28906	1266.79260	1051.90515	-731.21753	1186.87561	955.63745	-785.57025	1118.17700	872.09851	-732.58978	1130.34583	857.01385	-756.75909	1069.43286	806.67517	-1102.55493	1372.16321	1342.86902	-1173.45886	1415.24695	1124.40918	-1189.63367	1421.82031	1011.99915	-1195.66650	1430.28101	875.16016	-1166.95850	1411.87634	774.66431	-1205.22363	1451.17529	776.89746	-1196.11548	1443.68079	701.28748	-834.66199	1308.61047	917.23175	-1072.32886	1315.59607	924.19586	-882.30042	1471.03064	942.73425	-1030.39478	1475.62744	948.79755	-802.08344	1405.89685	623.13831	-838.80994	1445.93848	448.76358	-833.41150	1554.80896	280.80350	-874.47327	1640.80579	85.56947	-905.89801	1692.74182	62.11506	-917.16302	1503.01318	26.98552	-1128.41101	1319.33606	630.56427	-1098.93286	1243.06934	465.64847	-1110.61084	1229.68835	280.60757	-1079.01318	1175.46997	67.45578	-1022.92542	1205.65515	29.69615	-1069.29102	1027.81726	50.29951	-921.62689	1352.85999	1658.64355												 
7	0.060	-885.65979	1253.18323	1597.22705	-1017.47491	1269.45203	1607.32507	-877.63251	1381.22351	1550.45093	-1007.82141	1391.77478	1560.07654	-935.91101	1416.18506	1397.58154	-940.81177	1461.69836	1087.16272	-951.23944	1295.89294	1317.81299	-948.72943	1258.24316	1151.09436	-1022.82465	1484.74243	1224.57776	-792.13483	1323.23718	1357.41772	-717.13672	1297.56274	1167.20264	-709.51666	1258.20459	1051.45471	-733.02405	1178.83337	954.63159	-787.00183	1110.58203	870.68237	-734.02899	1123.01440	855.73260	-757.73676	1062.13220	805.19672	-1104.93005	1361.68933	1342.59412	-1175.69299	1404.81958	1124.12268	-1191.67480	1411.19507	1011.60901	-1197.34705	1419.15869	874.67078	-1167.93652	1400.75598	774.02155	-1206.70935	1439.76746	776.36938	-1197.51892	1431.94507	700.83179	-836.56982	1298.56836	916.85931	-1074.08801	1304.71582	924.03668	-884.91443	1461.32751	942.58264	-1032.97620	1465.04077	949.12091	-803.12982	1397.67810	623.12732	-839.08435	1438.28503	448.71432	-833.47150	1549.89990	282.25613	-873.88788	1639.08533	88.35979	-905.27264	1691.46338	66.04609	-917.05664	1502.83069	26.90541	-1129.26379	1308.22302	631.05396	-1098.96008	1233.85205	465.17142	-1109.79846	1222.99866	279.80670	-1078.75525	1171.20105	67.03965	-1023.45288	1204.22913	31.11969	-1065.79395	1024.45776	41.42818	-924.08679	1342.67456	1658.69812												 
